<?xml version="1.0" encoding="UTF-8"?>
<svg xmlns="http://www.w3.org/2000/svg" id="Layer_1" data-name="Layer 1" viewBox="0 0 512 512" width="512" height="512"><path d="M491.966,119H487V107.993A19.708,19.708,0,0,0,467.413,88H445V76.727a11.468,11.468,0,0,0-10-11.44V62.634A15.324,15.324,0,0,0,419.594,47H405.538A15.434,15.434,0,0,0,390,62.634v2.653a11.468,11.468,0,0,0-10,11.44V88H131V76.727a11.528,11.528,0,0,0-9-11.44V62.634C122,53.884,114.57,47,105.863,47H91.808A15.662,15.662,0,0,0,76,62.634v2.653c-5,.941-10,5.706-10,11.44V88H44.587A19.708,19.708,0,0,0,25,107.993V119H20.034A9.756,9.756,0,0,0,10,128.688v39.277A10.046,10.046,0,0,0,20.034,178H36V405.277a24.162,24.162,0,0,0-20,23.732v30.225A5.578,5.578,0,0,0,21.729,465H490.271A5.578,5.578,0,0,0,496,459.234V429.009a24.162,24.162,0,0,0-20-23.732V178h15.966A10.046,10.046,0,0,0,502,167.965V128.688A9.756,9.756,0,0,0,491.966,119ZM445,100h22.413A7.7,7.7,0,0,1,475,107.993V119H445ZM402,62.634A3.432,3.432,0,0,1,405.538,59h14.056A3.33,3.33,0,0,1,423,62.634V65H402ZM392,77h41v42H392ZM131,100H380v19H131ZM88,62.634A3.652,3.652,0,0,1,91.808,59h14.055c2.091,0,4.137,1.5,4.137,3.634V65H88ZM78,77h41v42H78ZM37,107.993A7.7,7.7,0,0,1,44.587,100H66v19H37ZM484,429.009V453H28V429.009A11.793,11.793,0,0,1,39.729,417H472.271A11.793,11.793,0,0,1,484,429.009ZM48,405V178H464V405ZM490,166H22V131H490Z"/><path d="M129.384,288H118V276.6a6,6,0,0,0-12,0V288H95.344a6,6,0,0,0,0,12H106v10.908a6,6,0,0,0,12,0V300h11.384a6,6,0,1,0,0-12Z"/><path d="M419.509,288h-34.04a6,6,0,0,0,0,12h34.04a6,6,0,0,0,0-12Z"/><path d="M355.489,211H157.511A11.511,11.511,0,0,0,146,222.511V359.489A11.511,11.511,0,0,0,157.511,371H355.489A11.511,11.511,0,0,0,367,359.489V222.511A11.511,11.511,0,0,0,355.489,211ZM354,359H158V223H354Z"/><path d="M230.4,309.7a6,6,0,0,0,6.239.539L250,303.563v33.274a6,6,0,0,0,11.735,1.765l22.042-71.638a6,6,0,0,0-8.332-7.172l-10.668,5.124,7.981-26.063A6.077,6.077,0,0,0,267.021,231H244.979a6.042,6.042,0,0,0-5.922,5.085l-11.022,67.8A6.023,6.023,0,0,0,230.4,309.7Zm19.68-66.7h8.827l-9.616,31.449a6.015,6.015,0,0,0,8.335,7.2l10.645-5.107L262,296.936v-3.081a6,6,0,0,0-8.683-5.367l-11.556,5.73Z"/><path d="M67,213.425a6,6,0,0,0-6,6V321.181a6,6,0,0,0,12,0V219.425A6,6,0,0,0,67,213.425Z"/><path d="M67,189.857a6,6,0,0,0-6,6v4.884a6,6,0,0,0,12,0v-4.884A6,6,0,0,0,67,189.857Z"/></svg>
