<svg id="car" enable-background="new 0 0 300 300" height="512" viewBox="0 0 300 300" width="512" xmlns="http://www.w3.org/2000/svg"><g><path d="m222 166.699h-36c-2.211 0-4 1.789-4 4 0 9.027 7.348 16.375 16.375 16.375h11.25c9.027 0 16.375-7.348 16.375-16.375 0-2.211-1.789-4-4-4zm-12.375 12.375h-11.25c-3.172 0-5.934-1.77-7.355-4.375h25.961c-1.422 2.606-4.184 4.375-7.356 4.375z"/><path d="m110 46.586c2.211 0 4-1.789 4-4v-5.66c0-2.211-1.789-4-4-4s-4 1.789-4 4v5.66c0 2.211 1.789 4 4 4z"/><path d="m110 69.223c2.211 0 4-1.789 4-4v-5.66c0-2.211-1.789-4-4-4s-4 1.789-4 4v5.66c0 2.211 1.789 4 4 4z"/><path d="m95.852 55.074h5.66c2.211 0 4-1.789 4-4s-1.789-4-4-4h-5.66c-2.211 0-4 1.789-4 4s1.789 4 4 4z"/><path d="m118.488 55.074h5.66c2.211 0 4-1.789 4-4s-1.789-4-4-4h-5.66c-2.211 0-4 1.789-4 4s1.789 4 4 4z"/><path d="m40 135.074c7.719 0 14-6.281 14-14s-6.281-14-14-14-14 6.281-14 14 6.281 14 14 14zm0-20c3.309 0 6 2.691 6 6s-2.691 6-6 6-6-2.691-6-6 2.691-6 6-6z"/><path d="m48 65.351c2.362 0 4.276-1.915 4.276-4.276s-1.914-4.277-4.276-4.277-4.276 1.915-4.276 4.277 1.914 4.276 4.276 4.276z"/><path d="m270 251.074c2.211 0 4-1.789 4-4s-1.789-4-4-4h-24v-156h24c2.211 0 4-1.789 4-4s-1.789-4-4-4h-102.68c-7.121 0-14.16 2.383-19.824 6.711l-85.373 65.289h-28.123c-2.211 0-4 1.789-4 4s1.789 4 4 4h24.004l-.004 84h-24c-2.211 0-4 1.789-4 4s1.789 4 4 4h204v8h-204c-2.211 0-4 1.789-4 4s1.789 4 4 4h236c2.211 0 4-1.789 4-4s-1.789-4-4-4h-24v-8zm-151.995-115.881 39.405-31.767c3.859-2.848 8.438-4.352 13.242-4.352h55.348v56h-96v-6.828c0-6.859-5.291-12.447-11.995-13.053zm-1.177 7.881c2.852 0 5.172 2.32 5.172 5.172v6.828h-36v-7.414c0-2.527 2.059-4.586 4.586-4.586zm-50.824 15.102 11.996-9.174v10.072c0 2.211 1.789 4 4 4h44 104c2.211 0 4-1.789 4-4v-64c0-2.211-1.789-4-4-4h-59.348c-6.523 0-12.746 2.043-18.129 6.02l-47.074 37.945c-.012.01-.017.025-.029.035h-9.207l56.143-42.934c4.273-3.266 9.59-5.066 14.965-5.066h70.679v156h-172z"/><path d="m270 99.074c2.211 0 4-1.789 4-4s-1.789-4-4-4h-16c-2.211 0-4 1.789-4 4v64c0 2.211 1.789 4 4 4h16c2.211 0 4-1.789 4-4s-1.789-4-4-4h-12v-56z"/><path d="m102 171.074h-16c-2.211 0-4 1.789-4 4v16c0 2.211 1.789 4 4 4h16c2.211 0 4-1.789 4-4v-16c0-2.211-1.789-4-4-4zm-4 16h-8v-8h8z"/><path d="m146 171.074h-16c-2.211 0-4 1.789-4 4v16c0 2.211 1.789 4 4 4h16c2.211 0 4-1.789 4-4v-16c0-2.211-1.789-4-4-4zm-4 16h-8v-8h8z"/><path d="m102 215.074h-16c-2.211 0-4 1.789-4 4v16c0 2.211 1.789 4 4 4h16c2.211 0 4-1.789 4-4v-16c0-2.211-1.789-4-4-4zm-4 16h-8v-8h8z"/><path d="m146 215.074h-16c-2.211 0-4 1.789-4 4v16c0 2.211 1.789 4 4 4h16c2.211 0 4-1.789 4-4v-16c0-2.211-1.789-4-4-4zm-4 16h-8v-8h8z"/><path d="m142 207.074v-4c0-2.211-1.789-4-4-4s-4 1.789-4 4v4c0 2.211 1.789 4 4 4s4-1.789 4-4z"/><path d="m118 223.074h-4c-2.211 0-4 1.789-4 4s1.789 4 4 4h4c2.211 0 4-1.789 4-4s-1.789-4-4-4z"/><path d="m118 179.074h-4c-2.211 0-4 1.789-4 4s1.789 4 4 4h4c2.211 0 4-1.789 4-4s-1.789-4-4-4z"/><path d="m98 207.074v-4c0-2.211-1.789-4-4-4s-4 1.789-4 4v4c0 2.211 1.789 4 4 4s4-1.789 4-4z"/></g></svg>