<svg height="496pt" viewBox="0 -15 496 495" width="496pt" xmlns="http://www.w3.org/2000/svg"><path d="m346.976562 285.132812c-12.433593-7.953124-27.152343-12.632812-42.976562-12.632812-3.175781 0-6.289062.238281-9.367188.601562-4.839843-.386718-9.753906-.601562-14.632812-.601562h-182.265625c-36.246094 0-65.734375 29.496094-65.734375 65.734375v28.53125c0 22.804687 11.550781 43.644531 30.902344 55.742187 10.449218 6.535157 22.496094 9.992188 34.832031 9.992188h364.960937l-1.742187-9.457031c-11.441406-62.023438-55.097656-114.824219-113.976563-137.910157zm21.023438 67.367188c0 35.289062-28.710938 64-64 64s-64-28.710938-64-64 28.710938-64 64-64 64 28.710938 64 64zm-111.792969-64c-10.246093 7.679688-18.582031 17.726562-24.207031 29.359375-5.625-11.632813-13.953125-21.679687-24.207031-29.359375zm-96.207031 128c-35.289062 0-64-28.710938-64-64s28.710938-64 64-64 64 28.710938 64 64-28.710938 64-64 64zm-62.265625 0c-9.335937 0-18.4375-2.609375-26.351563-7.550781-14.640624-9.160157-23.382812-24.929688-23.382812-42.183594v-28.53125c0-27.421875 22.3125-49.734375 49.734375-49.734375h14.472656c-19.503906 14.601562-32.207031 37.816406-32.207031 64s12.703125 49.398438 32.207031 64zm110.058594 0c10.246093-7.679688 18.582031-17.726562 24.207031-29.359375 5.625 11.632813 13.953125 21.6875 24.207031 29.359375zm144 0c19.503906-14.601562 32.207031-37.816406 32.207031-64 0-11.886719-2.679688-23.136719-7.34375-33.28125 32.816406 23.257812 56.832031 57.898438 66.535156 97.28125zm0 0"/><path d="m280 240.5h-182.265625c-53.894531 0-97.734375 43.839844-97.734375 97.734375v28.53125c0 33.917969 17.167969 64.894531 45.9375 82.871094 15.550781 9.71875 33.460938 14.863281 51.796875 14.863281h398.265625v-8c0-119.105469-96.894531-216-216-216zm-182.265625 208c-15.335937 0-30.308594-4.296875-43.320313-12.425781-24.054687-15.039063-38.414062-40.941407-38.414062-69.308594v-28.53125c0-45.070313 36.664062-81.734375 81.734375-81.734375h182.265625c107.601562 0 195.632812 85.414062 199.839844 192zm0 0"/><path d="m304 384.5v-16c-8.824219 0-16-7.175781-16-16s7.175781-16 16-16 16 7.175781 16 16h16c0-17.648438-14.351562-32-32-32s-32 14.351562-32 32 14.351562 32 32 32zm0 0"/><path d="m160 320.5c-17.648438 0-32 14.351562-32 32s14.351562 32 32 32v-16c-8.824219 0-16-7.175781-16-16s7.175781-16 16-16 16 7.175781 16 16h16c0-17.648438-14.351562-32-32-32zm0 0"/><path d="m398.265625 32.5h-182.265625c-4.878906 0-9.769531.222656-14.558594.609375-3.105468-.371094-6.242187-.609375-9.441406-.609375-15.824219 0-30.542969 4.671875-42.96875 12.632812-58.886719 23.078126-102.550781 75.886719-113.984375 137.910157l-1.742187 9.457031h364.960937c12.335937 0 24.375-3.457031 34.832031-9.992188 19.351563-12.097656 30.902344-32.9375 30.902344-55.742187v-28.53125c0-36.238281-29.488281-65.734375-65.734375-65.734375zm1.734375 80c0 35.289062-28.710938 64-64 64s-64-28.710938-64-64 28.710938-64 64-64 64 28.710938 64 64zm-111.792969-64c-10.246093 7.679688-18.582031 17.726562-24.207031 29.359375-5.625-11.632813-13.953125-21.679687-24.207031-29.359375zm-32.207031 64c0 35.289062-28.710938 64-64 64s-64-28.710938-64-64 28.710938-64 64-64 64 28.710938 64 64zm-203.183594 64c9.695313-39.390625 33.710938-74.03125 66.535156-97.289062-4.671874 10.152343-7.351562 21.402343-7.351562 33.289062 0 26.183594 12.703125 49.398438 32.207031 64zm186.976563 0c10.246093-7.679688 18.582031-17.726562 24.207031-29.359375 5.625 11.632813 13.953125 21.6875 24.207031 29.359375zm208.207031-49.734375c0 17.253906-8.742188 33.023437-23.375 42.175781-7.921875 4.949219-17.023438 7.558594-26.359375 7.558594h-14.472656c19.503906-14.601562 32.207031-37.816406 32.207031-64s-12.703125-49.398438-32.207031-64h14.472656c27.421875 0 49.734375 22.3125 49.734375 49.734375zm0 0"/><path d="m398.265625.5h-182.265625c-119.105469 0-216 96.894531-216 216v8h398.265625c18.335937 0 36.246094-5.144531 51.796875-14.855469 28.769531-17.976562 45.9375-48.960937 45.9375-82.878906v-28.53125c0-53.894531-43.839844-97.734375-97.734375-97.734375zm81.734375 126.265625c0 28.367187-14.359375 54.269531-38.414062 69.308594-13.011719 8.128906-27.984376 12.425781-43.320313 12.425781h-382.105469c4.207032-106.585938 92.238282-192 199.839844-192h182.265625c45.070313 0 81.734375 36.664062 81.734375 81.734375zm0 0"/><path d="m192 96.5c8.824219 0 16 7.175781 16 16s-7.175781 16-16 16v16c17.648438 0 32-14.351562 32-32s-14.351562-32-32-32-32 14.351562-32 32h16c0-8.824219 7.175781-16 16-16zm0 0"/><path d="m336 96.5c8.824219 0 16 7.175781 16 16s-7.175781 16-16 16v16c17.648438 0 32-14.351562 32-32s-14.351562-32-32-32-32 14.351562-32 32h16c0-8.824219 7.175781-16 16-16zm0 0"/></svg>