<?xml version="1.0"?>
<svg xmlns="http://www.w3.org/2000/svg" viewBox="0 0 64 64" width="512" height="512"><g id="tyre"><path d="M62,32A30,30,0,0,0,2,32,29.726,29.726,0,0,0,3.83,42.3,6.965,6.965,0,0,0,2,47v8a7.008,7.008,0,0,0,7,7H55a7.008,7.008,0,0,0,7-7V47a6.965,6.965,0,0,0-1.83-4.7A29.726,29.726,0,0,0,62,32ZM55,60H9a5.011,5.011,0,0,1-5-4.98L7.67,57.8a1,1,0,0,0,1.21,0l4.66-3.54L18.2,57.8a1,1,0,0,0,1.21,0l4.67-3.54,4.67,3.54a1,1,0,0,0,1.21,0l4.66-3.54,4.67,3.54a1.015,1.015,0,0,0,1.21,0l4.67-3.54,4.67,3.54a1,1,0,0,0,1.21,0l4.67-3.55,3.79,2.87A4.992,4.992,0,0,1,55,60Zm5-5.01L56.33,52.2a1,1,0,0,0-1.21,0l-4.68,3.55L45.77,52.2a1,1,0,0,0-1.21,0L39.9,55.74,35.23,52.2a1,1,0,0,0-1.21,0l-4.67,3.54L24.68,52.2a1,1,0,0,0-1.21,0l-4.66,3.54L14.14,52.2a1,1,0,0,0-1.21,0L8.27,55.74,4,52.5V48.01L7.67,50.8a1,1,0,0,0,1.21,0l4.66-3.54L18.2,50.8a1,1,0,0,0,1.21,0l4.67-3.54,4.67,3.54a1,1,0,0,0,1.21,0l4.66-3.54,4.67,3.54a1.015,1.015,0,0,0,1.21,0l4.67-3.54,4.67,3.54a1,1,0,0,0,1.21,0l4.67-3.55L60,50.5Zm0-7L56.33,45.2a1,1,0,0,0-1.21,0l-4.68,3.55L45.77,45.2a1,1,0,0,0-1.21,0L39.9,48.74,35.23,45.2a1,1,0,0,0-1.21,0l-4.67,3.54L24.68,45.2a1,1,0,0,0-1.21,0l-4.66,3.54L14.14,45.2a1,1,0,0,0-1.21,0L8.27,48.74,4.21,45.66A4.991,4.991,0,0,1,9,42H55a5,5,0,0,1,5,5ZM24.2,29.79h.06a.987.987,0,0,0,.92-.62,1,1,0,0,0-.25-1.13l-5.95-5.31a16.234,16.234,0,0,1,3.75-3.74l5.31,5.94a1.039,1.039,0,0,0,.75.33,1.016,1.016,0,0,0,1-1.06l-.44-7.97c.25-.04.51-.09.77-.12a15.765,15.765,0,0,1,3.76,0c.26.03.52.08.77.12l-.44,7.97a1.016,1.016,0,0,0,1,1.06,1.039,1.039,0,0,0,.75-.33l5.31-5.94a16.234,16.234,0,0,1,3.75,3.74l-5.95,5.31a1,1,0,0,0-.25,1.13.987.987,0,0,0,.92.62h.06l7.96-.44A15.453,15.453,0,0,1,48,32a15.63,15.63,0,0,1-.23,2.65l-7.97-.44a1.008,1.008,0,0,0-.73,1.75L43.59,40h-6.8l-.84-.93a1,1,0,0,0-1.74.73l.01.2H29.78l.01-.2a1,1,0,0,0-1.74-.73l-.84.93h-6.8l4.52-4.04a1,1,0,0,0,.25-1.13,1.014,1.014,0,0,0-.98-.62l-7.97.44A15.63,15.63,0,0,1,16,32a15.453,15.453,0,0,1,.24-2.65Zm-7.5-2.42a16.607,16.607,0,0,1,.78-2.07c.13-.29.28-.57.43-.85l3.56,3.18Zm7.75-9.46a16.193,16.193,0,0,1,2.92-1.21l.26,4.77Zm11.92,3.56.26-4.77a16.193,16.193,0,0,1,2.92,1.21Zm9.72,2.98c.15.28.3.56.43.85a16.607,16.607,0,0,1,.78,2.07l-4.77.26Zm1.22,12.18a15.54,15.54,0,0,1-1.22,2.92l-3.56-3.18Zm-29.4,2.92a15.54,15.54,0,0,1-1.22-2.92l4.78-.26Zm40.62,1.41A7.039,7.039,0,0,0,55,40H48.11A18,18,0,0,0,50,32a17.457,17.457,0,0,0-.35-3.5,17.2,17.2,0,0,0-1.31-4.04A18.12,18.12,0,0,0,34.12,14.13a17.689,17.689,0,0,0-4.24,0A18.12,18.12,0,0,0,15.66,24.46a17.273,17.273,0,0,0-1.31,4.03A17.631,17.631,0,0,0,14,32a18,18,0,0,0,1.89,8H9a7.039,7.039,0,0,0-3.53.96A28,28,0,1,1,60,32,27.82,27.82,0,0,1,58.53,40.96Z"/><path d="M32,37a5,5,0,1,0-5-5A5.006,5.006,0,0,0,32,37Zm0-8a3,3,0,1,1-3,3A3,3,0,0,1,32,29Z"/></g></svg>
