<?xml version="1.0" encoding="iso-8859-1"?>
<!-- Generator: Adobe Illustrator 21.0.0, SVG Export Plug-In . SVG Version: 6.00 Build 0)  -->
<svg xmlns="http://www.w3.org/2000/svg" xmlns:xlink="http://www.w3.org/1999/xlink" version="1.1" id="Capa_1" x="0px" y="0px" viewBox="0 0 511.827 511.827" style="enable-background:new 0 0 511.827 511.827;" xml:space="preserve" width="512" height="512">
<path d="M510.065,321.467c-6.242-21.885-12.479-43.774-18.713-65.657l-13.341-46.825c-7.291-25.592-14.585-51.2-21.905-76.813  c-5.686-19.897-23.41-33.267-44.105-33.267H99.802c-20.71,0-38.439,13.382-44.115,33.3L20.795,254.692  c-6.342,22.26-12.685,44.522-19.034,66.781c-6.925,24.283,7.187,49.706,31.458,56.672c81.542,23.4,154.37,34.776,222.645,34.776  c68.28,0,141.138-11.377,222.736-34.779C502.878,371.178,516.993,345.754,510.065,321.467z M470.33,349.304  c-51.76,14.846-99.766,24.685-145.15,29.694l69.358-69.358c5.858-5.857,5.858-15.355,0-21.213c-5.857-5.857-15.355-5.857-21.213,0  l-93.313,93.313c-0.228,0.228-0.431,0.471-0.642,0.71c-7.905,0.311-15.74,0.471-23.505,0.471c-31.704,0-64.513-2.589-98.873-7.823  l74.824-74.824c5.858-5.857,5.858-15.355,0-21.213c-5.857-5.857-15.355-5.857-21.213,0l-89.685,89.686  c-25.531-5.086-51.947-11.554-79.421-19.438c-8.397-2.41-13.28-11.207-10.884-19.608c6.35-22.261,12.693-44.525,19.036-66.788  l34.892-122.486c1.994-6.998,7.985-11.521,15.263-11.521h141.112v30.039h-23.953c-8.284,0-15,6.716-15,15s6.716,15,15,15h77.905  c8.284,0,15-6.716,15-15s-6.716-15-15-15h-23.953v-30.039H412c7.272,0,13.262,4.518,15.26,11.51  c7.317,25.604,14.61,51.205,21.898,76.788L462.5,264.03c6.235,21.886,12.473,43.778,18.716,65.666  C483.612,338.099,478.729,346.895,470.33,349.304z"/>















</svg>
